<?xml version="1.0" encoding="utf-8"?>
<svg version="1.1" id="Capa_1" xmlns="http://www.w3.org/2000/svg" xmlns:xlink="http://www.w3.org/1999/xlink" x="0px" y="0px"
	 viewBox="0 0 438.5 438.5" style="enable-background:new 0 0 438.5 438.5;" xml:space="preserve">
<g>
	<path d="M274.1,428.8h-53c-14.7,0-25-11-25-24.4s10.3-24.4,24.8-24.4h51.4c70.3,0,109.2-41.7,109.2-98.9S342.6,184,272.3,184H133.2
		l-50.8-2.2l38.5,32.3l55.8,54.5c4.4,4.4,7.3,9.7,7.3,16.9c0,13.8-9.7,23.7-24,23.7c-6.2,0-13-2.9-17.8-7.5L16.4,177.6
		c-5.1-4.8-7.7-11.4-7.7-18c0-6.8,2.6-13.4,7.7-18.2L142.3,17.2c4.8-4.6,11.6-7.5,17.8-7.5c14.3,0,24,9.9,24,23.7
		c0,7.3-2.9,12.7-7.3,16.9l-55.8,54.5l-38.5,32.5l50.8-2.4h138c99.8,0,158.6,60.4,158.6,147.9C429.9,371,372.1,428.8,274.1,428.8z"
		/>
</g>
</svg>
