<?xml version="1.0" encoding="utf-8"?>
<svg version="1.1" id="Capa_1" xmlns="http://www.w3.org/2000/svg" xmlns:xlink="http://www.w3.org/1999/xlink" x="0px" y="0px"
	 viewBox="0 0 438.5 438.5" style="enable-background:new 0 0 438.5 438.5;" xml:space="preserve">
<g>
	<path d="M167.3,135h138l50.8,2.4l-38.5-32.5l-55.8-54.5c-4.4-4.2-7-9.7-7-16.9c0-13.8,9.4-23.7,24-23.7c5.9,0,12.7,2.9,17.6,7.5
		l125.9,124.1c5.1,4.8,7.7,11.4,7.7,18.2c0,6.6-2.6,13.2-7.7,18L296.3,301.8c-4.8,4.6-11.6,7.5-17.6,7.5c-14.5,0-24-9.9-24-23.7
		c0-7.3,2.6-12.5,7-16.9l55.8-54.5l38.5-32.3l-50.8,2.2H166.2C95.9,184,57,224,57,281.1S95.9,380,166.2,380h51.4
		c14.7,0,24.8,11,24.8,24.4s-10.1,24.4-24.8,24.4h-53.2c-98,0-155.8-57.8-155.8-145.9C8.6,195.4,67.7,135,167.3,135z"/>
</g>
</svg>
